<svg opacity="0.6" width="450" height="373" viewBox="0 0 450 373" fill="none" xmlns="http://www.w3.org/2000/svg">
<g clip-path="url(#clip0)">
<path d="M398.328 347.21L406.225 354.481L399.949 343.95C404.894 334.983 412.981 327.234 412.981 327.234C412.981 327.234 429.758 343.308 429.758 355.943C429.758 368.579 422.247 372.991 412.981 372.991C403.715 372.991 396.203 368.579 396.203 355.943C396.307 352.918 397.031 349.946 398.328 347.21Z" fill="#F2F2F2"/>
<path d="M408.256 354.875V355.497C408.293 362.737 409.514 368.385 411.91 372.363C411.944 372.421 411.981 372.477 412.015 372.536L412.283 372.372L412.539 372.212C409.881 367.917 408.94 361.846 408.907 355.531C408.904 355.328 408.9 355.121 408.904 354.915C408.913 352.241 409.076 349.537 409.338 346.91C409.357 346.707 409.378 346.5 409.4 346.294C409.764 342.828 410.288 339.517 410.824 336.64C410.861 336.436 410.901 336.233 410.942 336.033C411.87 331.167 412.816 327.643 413.032 326.863C413.057 326.767 413.072 326.715 413.075 326.703L412.782 326.619L412.779 326.616L412.483 326.533C412.48 326.545 412.428 326.721 412.341 327.048C412.011 328.269 411.154 331.583 410.313 335.955C410.276 336.153 410.235 336.356 410.198 336.56C409.761 338.894 409.332 341.502 408.993 344.24C408.907 344.928 408.829 345.606 408.762 346.275C408.737 346.482 408.715 346.688 408.697 346.892C408.413 349.732 408.266 352.392 408.256 354.875Z" fill="white"/>
<path d="M405.669 334.571C405.543 334.734 405.413 334.901 405.281 335.071C406.835 335.813 408.493 336.315 410.198 336.56C410.405 336.591 410.615 336.618 410.824 336.64C411.441 336.706 412.06 336.738 412.68 336.739C415.295 336.741 417.876 336.147 420.225 335C420.093 334.833 419.963 334.67 419.834 334.506C417.6 335.573 415.156 336.125 412.68 336.122C412.1 336.122 411.519 336.092 410.942 336.033C410.729 336.011 410.519 335.983 410.313 335.955C408.705 335.725 407.14 335.259 405.669 334.571Z" fill="white"/>
<path d="M399.854 343.139C399.752 343.321 399.654 343.503 399.555 343.685C402.231 345.61 405.405 346.723 408.697 346.892C408.91 346.901 409.122 346.907 409.338 346.91C409.425 346.913 409.511 346.913 409.597 346.913C412.338 346.913 415.039 346.26 417.477 345.008C419.915 343.756 422.02 341.941 423.617 339.714C423.497 339.529 423.373 339.347 423.25 339.165C421.718 341.366 419.676 343.165 417.299 344.406C414.922 345.648 412.279 346.297 409.597 346.297C409.532 346.297 409.465 346.297 409.4 346.294C409.187 346.294 408.974 346.287 408.762 346.275C405.551 346.119 402.455 345.029 399.854 343.139Z" fill="white"/>
<path d="M397.091 349.263C397.017 349.491 396.943 349.716 396.879 349.944C399.83 353.171 403.897 355.156 408.256 355.497C408.472 355.513 408.688 355.525 408.907 355.531C409.135 355.543 409.366 355.546 409.597 355.546C413.232 355.543 416.772 354.394 419.716 352.263C422.66 350.132 424.858 347.127 425.997 343.676C425.865 343.426 425.726 343.179 425.587 342.93C424.576 346.389 422.472 349.428 419.589 351.591C416.707 353.754 413.201 354.926 409.597 354.93C409.366 354.93 409.135 354.924 408.904 354.914C408.688 354.905 408.472 354.893 408.256 354.874C403.946 354.527 399.942 352.514 397.091 349.263Z" fill="white"/>
<path d="M63.5085 133.12L52.9897 135.26L63.8067 129.491C64.2103 119.259 61.2948 108.445 61.2948 108.445C61.2948 108.445 38.6227 113.529 32.0898 124.345C25.5569 135.16 29.7055 142.82 37.637 147.611C45.5684 152.402 54.2791 152.509 60.812 141.694C62.2869 139.05 63.2046 136.132 63.5085 133.12Z" fill="#F2F2F2"/>
<path d="M51.0478 134.547L50.7257 135.08C46.951 141.258 42.9854 145.462 38.8783 147.627C38.819 147.66 38.7587 147.688 38.6993 147.721L38.5542 147.443L38.4181 147.173C42.9137 144.871 46.8575 140.16 50.1513 134.773C50.2592 134.6 50.3686 134.425 50.4728 134.247C51.847 131.954 53.1052 129.555 54.2391 127.17C54.3285 126.987 54.4168 126.799 54.5051 126.611C55.9855 123.456 57.249 120.351 58.2771 117.611C58.3506 117.418 58.4216 117.223 58.4909 117.03C60.212 112.386 61.2239 108.88 61.4425 108.101C61.4708 108.006 61.4847 107.953 61.4884 107.941L61.7822 108.021L61.7864 108.02L62.0828 108.102C62.0791 108.114 62.0331 108.292 61.938 108.616C61.5891 109.832 60.6091 113.112 59.0691 117.29C58.9987 117.478 58.9278 117.673 58.8543 117.866C58.0223 120.09 57.0405 122.545 55.9152 125.064C55.6336 125.697 55.3489 126.317 55.061 126.925C54.9753 127.115 54.887 127.303 54.7976 127.486C53.5722 130.064 52.3223 132.417 51.0478 134.547Z" fill="white"/>
<path d="M59.0691 117.29C58.8779 117.207 58.6841 117.122 58.4909 117.03C57.9656 116.783 57.4533 116.508 56.9561 116.208C54.8357 114.931 53.0288 113.194 51.6685 111.126C51.4732 111.199 51.2779 111.272 51.0783 111.346C52.4965 113.543 54.3979 115.386 56.6373 116.736C57.1681 117.056 57.7155 117.348 58.2771 117.611C58.4677 117.701 58.6616 117.785 58.8543 117.866C60.4404 118.538 62.1194 118.966 63.8338 119.134C63.808 118.92 63.7832 118.711 63.7595 118.505C62.1447 118.333 60.5642 117.924 59.0691 117.29Z" fill="white"/>
<path d="M55.061 126.925C54.8725 126.825 54.6872 126.721 54.5051 126.611C54.4481 126.58 54.3901 126.545 54.3346 126.511C52.0388 125.125 50.1124 123.203 48.7196 120.911C47.3268 118.619 46.5088 116.024 46.3355 113.348C46.1359 113.44 45.9363 113.532 45.7377 113.628C45.953 116.36 46.8162 119.002 48.2558 121.334C49.6954 123.666 51.6699 125.622 54.0158 127.039C54.0897 127.084 54.1636 127.128 54.2391 127.17C54.4254 127.279 54.6107 127.384 54.7976 127.486C57.7027 129.044 60.9949 129.732 64.2807 129.468C64.2903 129.261 64.2999 129.055 64.3069 128.846C61.1036 129.119 57.8903 128.451 55.061 126.925Z" fill="white"/>
<path d="M51.0477 134.547C50.8534 134.451 50.6623 134.35 50.4727 134.247C50.27 134.135 50.0689 134.021 49.871 133.901C46.7882 132.034 44.3931 129.219 43.0443 125.877C41.6954 122.535 41.4654 118.846 42.3885 115.362C42.1406 115.504 41.8943 115.644 41.6517 115.789C40.8424 119.332 41.1701 123.04 42.5883 126.386C44.0066 129.732 46.4433 132.547 49.5522 134.429C49.7501 134.548 49.9496 134.665 50.1513 134.773C50.3419 134.881 50.533 134.982 50.7257 135.08C54.6336 137.042 59.1411 137.446 63.3354 136.209C63.398 135.981 63.451 135.75 63.5056 135.516C59.385 136.825 54.9163 136.478 51.0477 134.547Z" fill="white"/>
<path d="M240.828 22.7154L239.971 34.801L244.846 21.8509C256.238 19.9024 268.768 21.5834 268.768 21.5834C268.768 21.5834 266.394 47.7014 255.245 56.5951C244.096 65.4887 234.916 61.9662 228.394 53.7902C221.872 45.6144 220.478 35.8812 231.627 26.9875C234.108 25.008 237.326 23.6431 240.828 22.7154Z" fill="#F2F2F2"/>
<path d="M241.054 36.8699L240.504 37.3083C234.142 42.4366 230.018 47.4898 228.194 52.4032C228.167 52.4743 228.144 52.546 228.116 52.6172L228.449 52.7389L228.77 52.8518C230.689 47.4836 235.384 42.3807 240.932 37.9062C241.109 37.7602 241.29 37.6121 241.474 37.4694C243.839 35.596 246.34 33.8369 248.843 32.2191C249.035 32.0922 249.233 31.9659 249.43 31.8395C252.744 29.7212 256.035 27.8529 258.951 26.3015C259.156 26.1909 259.364 26.083 259.569 25.9773C264.515 23.3716 268.291 21.7263 269.131 21.3676C269.233 21.3221 269.29 21.2988 269.303 21.2929L269.171 20.9758L269.171 20.9709L269.036 20.6511C269.023 20.6571 268.831 20.7345 268.482 20.8884C267.172 21.4567 263.645 23.0334 259.194 25.368C258.994 25.4743 258.786 25.5822 258.581 25.6928C256.213 26.9493 253.61 28.4071 250.955 30.035C250.288 30.4428 249.635 30.8522 248.997 31.2633C248.797 31.387 248.6 31.5133 248.407 31.6403C245.702 33.3887 243.251 35.132 241.054 36.8699Z" fill="white"/>
<path d="M257.147 20.2966C256.914 20.3001 256.676 20.303 256.433 20.3054C256.872 22.1996 257.596 24.0161 258.581 25.6929C258.699 25.8969 258.822 26.1014 258.951 26.3016C259.327 26.8917 259.734 27.4616 260.17 28.0088C262.008 30.3177 264.349 32.176 267.015 33.4419C267.068 33.2078 267.122 32.9785 267.175 32.7492C264.661 31.5293 262.453 29.7611 260.714 27.5748C260.305 27.0622 259.923 26.5291 259.569 25.9774C259.438 25.7745 259.315 25.57 259.194 25.3682C258.266 23.7877 257.576 22.0787 257.147 20.2966Z" fill="white"/>
<path d="M245.494 21.1965C245.262 21.2348 245.032 21.2758 244.802 21.3167C244.987 25.0327 246.239 28.6167 248.407 31.6402C248.549 31.8344 248.693 32.0265 248.842 32.2191C248.901 32.2974 248.961 32.3736 249.022 32.4498C250.951 34.868 253.429 36.7917 256.25 38.0617C259.07 39.3317 262.153 39.9113 265.242 39.7526C265.321 39.5163 265.395 39.2794 265.469 39.0426C262.448 39.2402 259.424 38.7043 256.655 37.4808C253.886 36.2572 251.454 34.3823 249.566 32.0157C249.521 31.9586 249.473 31.8987 249.43 31.8394C249.28 31.6517 249.136 31.4597 248.997 31.2633C246.875 28.32 245.657 24.8215 245.494 21.1965Z" fill="white"/>
<path d="M238.147 23.0691C237.893 23.1644 237.643 23.2575 237.396 23.361C236.625 28.2361 237.736 33.2217 240.504 37.3083C240.642 37.5096 240.783 37.7087 240.932 37.9062C241.082 38.1162 241.242 38.3224 241.405 38.5265C243.966 41.7305 247.472 44.0459 251.425 45.1437C255.377 46.2415 259.575 46.0659 263.422 44.6417C263.549 44.349 263.669 44.0529 263.792 43.7547C260.028 45.2975 255.865 45.5797 251.928 44.559C247.99 43.5382 244.489 41.2695 241.949 38.0924C241.786 37.8884 241.629 37.68 241.474 37.4695C241.33 37.2725 241.189 37.0734 241.054 36.87C238.327 32.8227 237.284 27.8724 238.147 23.0691Z" fill="white"/>
<path d="M112.956 243.374C111.809 243.374 110.651 243.356 109.514 243.32L109.539 242.494C111.172 242.545 112.839 242.559 114.48 242.537L114.491 243.364C113.98 243.37 113.469 243.374 112.956 243.374ZM119.466 243.182L119.417 242.357C121.053 242.261 122.709 242.125 124.34 241.954L124.427 242.776C122.783 242.949 121.114 243.085 119.465 243.182H119.466ZM104.543 243.054C102.894 242.927 101.228 242.762 99.5898 242.561L99.6907 241.74C101.316 241.939 102.97 242.104 104.606 242.229L104.543 243.054ZM129.364 242.144L129.24 241.327C130.865 241.081 132.502 240.794 134.105 240.476L134.267 241.286C132.651 241.607 131.001 241.896 129.364 242.144ZM94.6647 241.842C93.0355 241.566 91.391 241.249 89.7769 240.898L89.9523 240.09C91.5541 240.438 93.1859 240.753 94.8028 241.027L94.6647 241.842ZM139.126 240.204L138.927 239.402C140.522 239.007 142.126 238.571 143.694 238.106L143.929 238.899C142.349 239.368 140.733 239.807 139.126 240.204ZM84.9382 239.73C83.3401 239.305 81.7319 238.838 80.1582 238.34L80.4073 237.552C81.9691 238.045 83.565 238.509 85.1506 238.931L84.9382 239.73ZM148.668 237.373L148.397 236.593C149.944 236.054 151.501 235.473 153.024 234.863L153.331 235.631C151.797 236.245 150.228 236.831 148.668 237.373ZM75.4352 236.726C73.8831 236.155 72.3213 235.54 70.7937 234.896L71.1146 234.134C72.6306 234.773 74.1802 235.383 75.7206 235.95L75.4352 236.726ZM157.899 233.68L157.556 232.927C159.043 232.252 160.537 231.531 161.997 230.784L162.374 231.521C160.902 232.273 159.397 232.999 157.899 233.68ZM166.745 229.158L166.336 228.44C167.761 227.626 169.184 226.771 170.565 225.898L171.006 226.597C169.615 227.477 168.182 228.339 166.745 229.158ZM175.147 223.842L174.674 223.165C176.016 222.227 177.355 221.245 178.655 220.246L179.159 220.902C177.85 221.908 176.5 222.898 175.147 223.842H175.147ZM49.1305 222.678C47.796 221.709 46.463 220.693 45.168 219.66L45.684 219.014C46.969 220.039 48.292 221.047 49.6162 222.009L49.1305 222.678ZM183.033 217.781L182.5 217.149C183.751 216.093 184.997 214.993 186.202 213.879L186.763 214.486C185.549 215.609 184.294 216.717 183.033 217.781ZM41.3481 216.464C40.1053 215.376 38.8705 214.244 37.6783 213.099L38.2508 212.502C39.4341 213.638 40.6594 214.762 41.8927 215.842L41.3481 216.464ZM190.339 211.023L189.751 210.443C190.904 209.274 192.045 208.064 193.141 206.848L193.756 207.401C192.651 208.627 191.502 209.846 190.339 211.023H190.339ZM34.1664 209.571C33.0261 208.372 31.9 207.133 30.8192 205.888L31.4438 205.346C32.5162 206.582 33.6337 207.812 34.7655 209.001L34.1664 209.571ZM197.003 203.627L196.365 203.102C197.407 201.834 198.433 200.525 199.415 199.212L200.077 199.707C199.087 201.03 198.053 202.349 197.003 203.627V203.627ZM27.6438 202.057C26.6198 200.763 25.6115 199.427 24.6468 198.087L25.3178 197.604C26.2752 198.934 27.2758 200.26 28.2921 201.544L27.6438 202.057ZM202.968 195.651L202.284 195.186C203.206 193.829 204.11 192.431 204.968 191.032L205.673 191.465C204.807 192.875 203.897 194.283 202.968 195.651ZM21.8349 193.985C20.934 192.604 20.0523 191.183 19.214 189.76L19.9262 189.34C20.7582 190.752 21.6333 192.162 22.5273 193.533L21.8349 193.985ZM208.183 187.159L207.46 186.76C208.254 185.323 209.025 183.848 209.753 182.375L210.494 182.741C209.761 184.225 208.983 185.712 208.183 187.159V187.159ZM212.599 178.221L211.842 177.889C212.5 176.385 213.133 174.844 213.722 173.309L214.494 173.606C213.9 175.152 213.263 176.705 212.599 178.221V178.221ZM12.5517 176.437C11.9179 174.916 11.3109 173.359 10.7477 171.811L11.5249 171.528C12.0836 173.065 12.6859 174.609 13.3147 176.119L12.5517 176.437ZM216.174 168.906L215.389 168.646C215.905 167.092 216.392 165.503 216.836 163.923L217.632 164.147C217.185 165.739 216.694 167.34 216.174 168.906ZM9.15506 167.095C8.66313 165.519 8.20087 163.909 7.78121 162.31L8.58097 162.1C8.9974 163.687 9.45623 165.285 9.94432 166.848L9.15506 167.095ZM218.869 159.325L218.064 159.137C218.434 157.544 218.772 155.917 219.07 154.301L219.883 154.451C219.583 156.079 219.242 157.718 218.869 159.325ZM6.62984 157.467C6.28506 155.852 5.973 154.207 5.70252 152.576L6.51802 152.441C6.7867 154.059 7.09634 155.692 7.43849 157.294L6.62984 157.467ZM220.671 149.536L219.851 149.424C220.074 147.805 220.261 146.154 220.41 144.516L221.233 144.59C221.084 146.241 220.894 147.904 220.671 149.536L220.671 149.536ZM5.00047 147.648C4.80547 146.012 4.6454 144.345 4.52449 142.694L5.34926 142.634C5.46896 144.272 5.62803 145.926 5.82161 147.551L5.00047 147.648ZM221.57 139.625L220.744 139.588C220.817 137.949 220.855 136.288 220.855 134.649H221.682C221.682 136.3 221.644 137.974 221.57 139.625H221.57ZM4.27398 137.722C4.24572 136.709 4.2314 135.674 4.23117 134.649C4.23117 134.013 4.23663 133.378 4.24753 132.744L5.07434 132.758C5.06344 133.387 5.05798 134.017 5.05798 134.649C5.05818 135.667 5.07251 136.693 5.10037 137.7L4.27398 137.722ZM5.27056 127.822L4.44538 127.771C4.54853 126.119 4.69103 124.45 4.86847 122.811L5.69044 122.9C5.51419 124.527 5.37308 126.183 5.27054 127.822L5.27056 127.822ZM220.321 122.778C220.156 121.148 219.929 120.353 219.689 118.73L220.507 118.61C220.748 120.245 220.956 121.493 221.122 123.136L220.321 122.778ZM6.33415 118.003L5.51703 117.876C5.77036 116.241 6.06467 114.592 6.39188 112.976L7.20216 113.14C6.87753 114.744 6.58543 116.38 6.33412 118.003H6.33415ZM218.854 113.862C218.539 112.249 218.184 110.626 217.797 109.037L218.6 108.841C218.99 110.442 219.348 112.079 219.666 113.704L218.854 113.862ZM8.29254 108.322L7.49056 108.121C7.89206 106.52 8.33675 104.905 8.81232 103.322L9.604 103.559C9.13225 105.131 8.69099 106.733 8.29252 108.322H8.29254ZM216.518 104.265C216.057 102.691 215.553 101.107 215.02 99.5577L215.802 99.2889C216.339 100.85 216.847 102.446 217.311 104.033L216.518 104.265ZM11.1387 98.8494L10.3587 98.5753C10.9082 97.0123 11.5014 95.4419 12.122 93.9076L12.8886 94.2176C12.2727 95.74 11.6839 97.2986 11.1387 98.8494ZM213.307 94.9243C212.704 93.4027 212.058 91.8757 211.387 90.3853L212.141 90.0458C212.817 91.5476 213.468 93.0864 214.076 94.6195L213.307 94.9243ZM14.8497 89.673L14.0983 89.3278C14.7889 87.824 15.5239 86.3159 16.2828 84.8456L17.0176 85.2246C16.2643 86.6839 15.535 88.1805 14.8497 89.673ZM209.261 85.9376C208.521 84.478 207.737 83.0153 206.93 81.5908L207.65 81.1835C208.462 82.6191 209.252 84.0928 209.998 85.5638L209.261 85.9376ZM19.3876 80.8819L18.671 80.4693C19.4958 79.0371 20.3656 77.6036 21.2564 76.2087L21.9532 76.6536C21.0693 78.0379 20.2059 79.4606 19.3876 80.8819V80.8819ZM204.403 77.3534C203.529 75.9626 202.615 74.5771 201.684 73.2351L202.363 72.764C203.301 74.1162 204.223 75.5123 205.103 76.9138L204.403 77.3534ZM24.7094 72.5482L24.0336 72.0718C24.9867 70.72 25.9833 69.3726 26.9962 68.067L27.6494 68.5736C26.6444 69.8696 25.6551 71.2067 24.7094 72.5482V72.5482ZM198.779 69.2442C197.783 67.9392 196.745 66.6419 195.694 65.3883L196.328 64.8572C197.387 66.1205 198.432 67.4275 199.436 68.7424L198.779 69.2442ZM30.7671 64.7385L30.1377 64.2024C31.2074 62.946 32.3222 61.6955 33.4512 60.4856L34.0556 61.0496C32.9353 62.2505 31.8289 63.4917 30.7671 64.7385ZM192.437 61.676C191.326 60.467 190.174 59.2688 189.013 58.115L189.596 57.5284C190.766 58.6913 191.927 59.8984 193.046 61.1164L192.437 61.676ZM37.5075 57.5155L36.9294 56.9244C38.1117 55.7678 39.3351 54.6243 40.5655 53.5258L41.1161 54.1426C39.8951 55.2327 38.6809 56.3675 37.5075 57.5155L37.5075 57.5155ZM185.431 54.7127C184.214 53.6087 182.957 52.5199 181.696 51.4765L182.223 50.8394C183.493 51.8907 184.76 52.9878 185.986 54.1002L185.431 54.7127ZM44.8737 50.9375L44.3517 50.2964C45.6305 49.2551 46.952 48.228 48.2799 47.2437L48.7724 47.9078C47.4545 48.8848 46.1428 49.904 44.8737 50.9375L44.8737 50.9375ZM52.8036 45.0601L52.3422 44.3741C53.7108 43.4533 55.1198 42.5516 56.5301 41.6935L56.9597 42.4C55.5603 43.2514 54.162 44.1465 52.8037 45.0601L52.8036 45.0601ZM61.232 39.9333L60.8351 39.2078C62.2831 38.4155 63.7677 37.6469 65.2477 36.9228L65.6111 37.6656C64.1424 38.3841 62.669 39.1469 61.232 39.9333L61.232 39.9333ZM161.015 38.0177C159.544 37.2847 158.037 36.5766 156.536 35.9131L156.87 35.1569C158.383 35.8255 159.902 36.5391 161.384 37.2777L161.015 38.0177ZM70.0879 35.6016L69.7593 34.8431C71.2725 34.1873 72.8203 33.5583 74.3596 32.9735L74.6532 33.7466C73.1255 34.3267 71.5896 34.9509 70.0879 35.6017L70.0879 35.6016ZM151.963 34.0165C150.432 33.4228 148.866 32.8564 147.306 32.3332L147.569 31.5492C149.141 32.0766 150.719 32.6473 152.262 33.2458L151.963 34.0165ZM79.3104 32.0996L79.0529 31.314C80.6241 30.7988 82.2273 30.3138 83.8175 29.8727L84.0385 30.6692C82.4604 31.1071 80.8696 31.5883 79.3104 32.0996ZM142.587 30.8703C141.011 30.4208 139.402 30.0021 137.807 29.6261L137.997 28.8214C139.604 29.2003 141.225 29.6222 142.814 30.075L142.587 30.8703ZM88.8278 29.4583L88.6437 28.6523C90.2545 28.2843 91.8954 27.949 93.5206 27.6559L93.6675 28.4694C92.0545 28.7605 90.4263 29.0931 88.8278 29.4583ZM132.974 28.6039C131.364 28.3017 129.724 28.0328 128.1 27.8047L128.214 26.986C129.851 27.2159 131.504 27.4868 133.127 27.7912L132.974 28.6039ZM98.5478 27.7042L98.4384 26.8846C100.075 26.6662 101.74 26.4825 103.386 26.3392L103.457 27.1628C101.824 27.3053 100.172 27.4874 98.5478 27.7042ZM123.193 27.2298C121.565 27.0764 119.907 26.9581 118.266 26.8788L118.306 26.0528C119.96 26.1329 121.63 26.252 123.271 26.4067L123.193 27.2298ZM108.388 26.8457L108.353 26.0197C109.872 25.9563 111.421 25.924 112.956 25.9236L113.331 25.9242L113.328 26.751L112.956 26.7504C111.433 26.7508 109.895 26.7829 108.388 26.8457Z" fill="#E4E4E4"/>
<path d="M235.446 7.02345V76.3937C235.444 78.0379 234.79 79.6143 233.627 80.7769C232.465 81.9395 230.888 82.5935 229.244 82.5954H128.642C126.997 82.5935 125.421 81.9395 124.259 80.7769C123.096 79.6143 122.442 78.0379 122.44 76.3937V7.02345C122.442 5.37924 123.096 3.8029 124.259 2.64027C125.421 1.47764 126.997 0.82366 128.642 0.821803L229.244 0.821777C230.888 0.823634 232.465 1.47762 233.627 2.64025C234.79 3.80289 235.444 5.37924 235.446 7.02345Z" fill="#E4E4E4"/>
<path d="M231.489 6.90123V76.5157C231.488 77.0226 231.287 77.5085 230.928 77.8669C230.57 78.2253 230.084 78.4269 229.577 78.4274H128.309C127.802 78.4269 127.316 78.2253 126.957 77.8669C126.599 77.5085 126.397 77.0226 126.397 76.5157V6.90123C126.397 6.39439 126.599 5.90847 126.957 5.55008C127.316 5.19168 127.802 4.99008 128.309 4.9895H229.577C230.084 4.99008 230.57 5.19168 230.928 5.55008C231.287 5.90847 231.488 6.39439 231.489 6.90123Z" fill="white"/>
<path d="M220.334 16.0369H137.551V17.7455H220.334V16.0369Z" fill="#6C63FF"/>
<path d="M220.334 21.4475H137.551V23.1562H220.334V21.4475Z" fill="#6C63FF"/>
<path d="M220.334 26.8584H137.551V28.5671H220.334V26.8584Z" fill="#6C63FF"/>
<path d="M220.334 35.4434H137.551V37.152H220.334V35.4434Z" fill="#E4E4E4"/>
<path d="M220.334 40.8542H137.551V42.5629H220.334V40.8542Z" fill="#E4E4E4"/>
<path d="M220.334 46.2651H137.551V47.9738H220.334V46.2651Z" fill="#E4E4E4"/>
<path d="M220.334 54.8499H137.551V56.5585H220.334V54.8499Z" fill="#E4E4E4"/>
<path d="M220.334 60.2607H137.551V61.9694H220.334V60.2607Z" fill="#E4E4E4"/>
<path d="M220.334 65.6716H137.551V67.3803H220.334V65.6716Z" fill="#E4E4E4"/>
<path d="M76.2018 254.044H6.8315C5.18729 254.042 3.61096 253.388 2.44833 252.225C1.2857 251.063 0.63171 249.486 0.629852 247.842V147.239C0.631709 145.595 1.2857 144.019 2.44833 142.856C3.61096 141.694 5.18729 141.04 6.8315 141.038H76.2018C77.846 141.04 79.4223 141.694 80.5849 142.856C81.7476 144.019 82.4016 145.595 82.4034 147.239V247.842C82.4016 249.486 81.7476 251.063 80.5849 252.225C79.4223 253.388 77.846 254.042 76.2018 254.044Z" fill="#E4E4E4"/>
<path d="M76.3239 250.087H6.70943C6.20258 250.086 5.71666 249.885 5.35827 249.526C4.99988 249.168 4.79828 248.682 4.7977 248.175V146.906C4.79828 146.4 4.99988 145.914 5.35827 145.555C5.71667 145.197 6.20258 144.995 6.70943 144.995H76.3239C76.8307 144.995 77.3167 145.197 77.6751 145.555C78.0335 145.914 78.235 146.4 78.2356 146.906V248.175C78.235 248.682 78.0335 249.168 77.6751 249.526C77.3167 249.885 76.8307 250.086 76.3239 250.087Z" fill="white"/>
<path d="M64.5088 198.564H18.5246V200.273H64.5088V198.564Z" fill="#E4E4E4"/>
<path d="M64.5088 203.975H18.5246V205.684H64.5088V203.975Z" fill="#E4E4E4"/>
<path d="M64.5088 209.386H18.5246V211.095H64.5088V209.386Z" fill="#E4E4E4"/>
<path d="M64.5088 221.242H18.5246V222.95H64.5088V221.242Z" fill="#E4E4E4"/>
<path d="M64.5088 226.653H18.5246V228.361H64.5088V226.653Z" fill="#E4E4E4"/>
<path d="M64.5088 232.063H18.5246V233.772H64.5088V232.063Z" fill="#E4E4E4"/>
<path d="M49.4391 159.433L31.4259 166.4L38.1514 183.789L56.1646 176.822L49.4391 159.433Z" fill="#6C63FF"/>
<path d="M33.7844 183.155L26.4984 164.316L45.9938 156.776L53.2798 175.615L33.7844 183.155ZM27.239 164.644L34.1119 182.414L52.5391 175.287L45.6663 157.517L27.239 164.644Z" fill="#3F3D56"/>
<path d="M112.956 155.916C124.702 155.916 134.223 146.394 134.223 134.649C134.223 122.903 124.702 113.382 112.956 113.382C101.211 113.382 91.6895 122.903 91.6895 134.649C91.6895 146.394 101.211 155.916 112.956 155.916Z" fill="#6C63FF"/>
<path d="M101.667 132.755C101.166 132.758 100.687 132.958 100.334 133.313C99.9808 133.668 99.7826 134.148 99.7826 134.649C99.7826 135.149 99.9808 135.63 100.334 135.985C100.687 136.339 101.166 136.54 101.667 136.543H108.756C109.367 136.543 109.954 136.787 110.386 137.219C110.819 137.652 111.062 138.238 111.063 138.85V145.939C111.064 146.44 111.263 146.921 111.619 147.276C111.974 147.63 112.455 147.829 112.956 147.829C113.458 147.829 113.939 147.63 114.294 147.276C114.649 146.921 114.849 146.44 114.85 145.939V138.85C114.851 138.238 115.094 137.652 115.527 137.219C115.959 136.787 116.546 136.543 117.157 136.543H124.246C124.747 136.54 125.226 136.339 125.579 135.984C125.932 135.63 126.13 135.149 126.13 134.649C126.13 134.148 125.932 133.668 125.579 133.313C125.226 132.958 124.747 132.758 124.246 132.755H117.157C116.546 132.754 115.959 132.511 115.527 132.079C115.094 131.646 114.851 131.06 114.85 130.448V123.359C114.849 122.857 114.649 122.376 114.294 122.022C113.939 121.668 113.458 121.469 112.956 121.469C112.455 121.469 111.974 121.668 111.619 122.022C111.263 122.376 111.064 122.857 111.063 123.359V130.448C111.062 131.06 110.819 131.646 110.386 132.079C109.954 132.511 109.367 132.754 108.756 132.755L101.667 132.755Z" fill="white"/>
<path d="M363.153 364.993L355.74 364.993L352.213 336.398L363.154 336.399L363.153 364.993Z" fill="#FFB6B6"/>
<path d="M365.044 372.179L341.14 372.179V371.876C341.14 369.409 342.12 367.042 343.865 365.297C345.61 363.553 347.976 362.572 350.444 362.572H350.444L365.044 362.573L365.044 372.179Z" fill="#2F2E41"/>
<path d="M319.159 364.993L311.746 364.993L308.219 336.398L319.161 336.399L319.159 364.993Z" fill="#FFB6B6"/>
<path d="M321.05 372.179L297.146 372.179V371.876C297.146 369.409 298.126 367.042 299.871 365.297C301.616 363.553 303.982 362.572 306.45 362.572H306.45L321.05 362.573L321.05 372.179Z" fill="#2F2E41"/>
<path d="M315.76 261.03C316.621 260.536 317.363 259.859 317.934 259.047C318.505 258.235 318.891 257.308 319.065 256.33C319.238 255.353 319.196 254.35 318.94 253.391C318.684 252.432 318.221 251.54 317.583 250.78L325.216 189.412L310.466 190.095L307.601 250.202C306.394 251.358 305.654 252.917 305.519 254.582C305.385 256.248 305.866 257.905 306.871 259.24C307.877 260.575 309.338 261.494 310.976 261.824C312.614 262.154 314.316 261.871 315.76 261.03Z" fill="#FFB6B6"/>
<path d="M324.892 200.073L309.678 197.854C309.245 197.791 308.83 197.635 308.463 197.398C308.096 197.16 307.784 196.846 307.549 196.477C307.314 196.108 307.161 195.693 307.101 195.259C307.041 194.826 307.075 194.385 307.201 193.966L311.613 179.285C311.948 177.072 313.148 175.082 314.948 173.752C316.748 172.422 319.003 171.86 321.217 172.189C323.431 172.519 325.424 173.713 326.759 175.51C328.094 177.307 328.662 179.56 328.338 181.775L328.376 197.054C328.377 197.492 328.284 197.924 328.102 198.322C327.921 198.72 327.656 199.075 327.325 199.361C326.995 199.648 326.606 199.86 326.186 199.983C325.767 200.105 325.325 200.136 324.892 200.073Z" fill="#6C63FF"/>
<path d="M316.023 241.327L311.188 245.801L311.549 269.289C311.549 269.289 307.46 303.589 307.087 304.708C306.714 305.826 305.211 346.837 305.211 346.837C305.211 346.837 313.04 350.566 320.124 348.329C320.124 348.329 327.208 314.774 327.208 305.081L335.41 271.153L344.743 310.3C344.743 310.3 348.832 336.025 350.323 344.6C351.815 353.176 351.815 354.294 351.815 354.294C351.815 354.294 363.745 357.65 366.728 354.294C366.728 354.294 365.236 310.3 364.118 305.826L361.508 252.512L316.023 241.327Z" fill="#2F2E41"/>
<path d="M337.833 158.372C344.628 158.372 350.137 152.863 350.137 146.069C350.137 139.274 344.628 133.765 337.833 133.765C331.038 133.765 325.53 139.274 325.53 146.069C325.53 152.863 331.038 158.372 337.833 158.372Z" fill="#FFB9B9"/>
<path d="M351.698 165.241L370.083 173.099L362.254 216.347C362.254 216.347 362.638 238.717 363.745 256.24C364.663 270.77 308.566 256.24 310.43 243.936C312.295 231.633 319.751 216.72 319.751 216.72C319.751 216.72 321.615 200.315 317.514 192.859C313.413 185.402 316.023 176.827 316.023 176.827L332.434 165.953C332.434 165.953 332.439 166.015 351.698 165.241Z" fill="#6C63FF"/>
<path d="M334.811 138.018C336.637 137.732 338.477 137.55 340.324 137.471C341.661 137.325 343.013 137.507 344.264 137.999C346.087 138.867 347.108 140.83 347.777 142.735C348.446 144.64 348.92 146.676 350.16 148.269C352.224 146.115 352.637 142.912 352.944 139.944C353.16 137.857 353.352 135.631 352.387 133.768C351.729 132.651 350.856 131.676 349.818 130.899C345.076 126.952 339.053 123.847 332.947 124.733L332.804 125.676C331.762 125.644 330.719 125.71 329.689 125.871L329.908 128.21L326.664 128.416L326.54 130.853L323.26 130.967C323.323 131.904 323.731 132.784 324.404 133.438C323.899 133.803 323.326 134.061 322.719 134.199C323.266 136.316 323.797 138.438 324.362 140.551C324.779 142.107 324.704 143.482 326.373 142.723C327.644 142.144 328.504 140.306 329.789 139.546C331.352 138.726 333.056 138.208 334.811 138.018Z" fill="#2F2E41"/>
<path d="M379.13 259.23C379.876 258.576 380.471 257.767 380.871 256.858C381.27 255.95 381.466 254.965 381.444 253.972C381.422 252.98 381.183 252.005 380.743 251.115C380.304 250.225 379.674 249.442 378.899 248.822L374.305 187.153L359.979 190.724L368.999 250.22C368.043 251.591 367.624 253.265 367.82 254.924C368.016 256.584 368.814 258.114 370.062 259.225C371.311 260.335 372.924 260.949 374.595 260.951C376.266 260.952 377.88 260.34 379.13 259.23V259.23Z" fill="#FFB6B6"/>
<path d="M376.087 197.669L360.733 198.487C360.296 198.51 359.859 198.439 359.452 198.279C359.045 198.118 358.678 197.871 358.375 197.556C358.072 197.24 357.84 196.863 357.696 196.45C357.552 196.037 357.499 195.598 357.54 195.162L358.976 179.9C358.869 177.665 359.654 175.478 361.157 173.82C362.66 172.161 364.76 171.167 366.995 171.054C369.231 170.942 371.42 171.72 373.082 173.219C374.745 174.718 375.745 176.815 375.864 179.05L378.908 194.023C378.995 194.452 378.989 194.894 378.889 195.32C378.79 195.746 378.6 196.146 378.332 196.492C378.064 196.838 377.725 197.122 377.338 197.325C376.95 197.528 376.523 197.645 376.087 197.669Z" fill="#6C63FF"/>
<path d="M448.937 372.766H231.469C231.318 372.766 231.172 372.706 231.065 372.599C230.958 372.492 230.898 372.347 230.898 372.195C230.898 372.044 230.958 371.899 231.065 371.792C231.172 371.685 231.318 371.625 231.469 371.625H448.937C449.088 371.625 449.233 371.685 449.34 371.792C449.447 371.899 449.507 372.044 449.507 372.195C449.507 372.347 449.447 372.492 449.34 372.599C449.233 372.706 449.088 372.766 448.937 372.766Z" fill="#CACACA"/>
</g>
<defs>
<clipPath id="clip0">
<rect width="448.877" height="372.169" fill="white" transform="translate(0.629883 0.821777)"/>
</clipPath>
</defs>
</svg>
